<svg width="53" height="53" viewBox="0 0 53 53" fill="none" xmlns="http://www.w3.org/2000/svg">
<path d="M12.9181 37.7626C14.7952 36.3272 16.8931 35.1954 19.2118 34.3673C21.5306 33.5391 23.9598 33.1251 26.4993 33.1251C29.0389 33.1251 31.4681 33.5391 33.7868 34.3673C36.1056 35.1954 38.2035 36.3272 40.0806 37.7626C41.3688 36.2536 42.3717 34.5421 43.0895 32.6282C43.8072 30.7143 44.166 28.6716 44.166 26.5001C44.166 21.6049 42.4454 17.4367 39.004 13.9954C35.5627 10.5541 31.3945 8.83341 26.4993 8.83341C21.6042 8.83341 17.436 10.5541 13.9947 13.9954C10.5533 17.4367 8.83268 21.6049 8.83268 26.5001C8.83268 28.6716 9.19154 30.7143 9.90924 32.6282C10.627 34.5421 11.6299 36.2536 12.9181 37.7626ZM26.4993 28.7084C24.3278 28.7084 22.4967 27.9631 21.0061 26.4725C19.5155 24.9819 18.7702 23.1508 18.7702 20.9792C18.7702 18.8077 19.5155 16.9766 21.0061 15.486C22.4967 13.9954 24.3278 13.2501 26.4993 13.2501C28.6709 13.2501 30.502 13.9954 31.9926 15.486C33.4832 16.9766 34.2285 18.8077 34.2285 20.9792C34.2285 23.1508 33.4832 24.9819 31.9926 26.4725C30.502 27.9631 28.6709 28.7084 26.4993 28.7084ZM26.4993 48.5834C23.4445 48.5834 20.5737 48.0037 17.8868 46.8443C15.2 45.685 12.8629 44.1115 10.8754 42.124C8.88789 40.1365 7.31445 37.7994 6.15508 35.1126C4.9957 32.4258 4.41602 29.5549 4.41602 26.5001C4.41602 23.4452 4.9957 20.5744 6.15508 17.8876C7.31445 15.2008 8.88789 12.8636 10.8754 10.8761C12.8629 8.88862 15.2 7.31519 17.8868 6.15581C20.5737 4.99644 23.4445 4.41675 26.4993 4.41675C29.5542 4.41675 32.425 4.99644 35.1118 6.15581C37.7987 7.31519 40.1358 8.88862 42.1233 10.8761C44.1108 12.8636 45.6842 15.2008 46.8436 17.8876C48.003 20.5744 48.5827 23.4452 48.5827 26.5001C48.5827 29.5549 48.003 32.4258 46.8436 35.1126C45.6842 37.7994 44.1108 40.1365 42.1233 42.124C40.1358 44.1115 37.7987 45.685 35.1118 46.8443C32.425 48.0037 29.5542 48.5834 26.4993 48.5834Z" fill="#1D1B20"/>
</svg>
